<svg width="400" height="175" viewBox="0 0 400 175" fill="none" xmlns="http://www.w3.org/2000/svg">
<path d="M31.684 12.072C31.06 12.072 30.46 11.972 29.884 11.772C29.316 11.572 28.876 11.308 28.564 10.98L28.912 10.296C29.216 10.6 29.62 10.848 30.124 11.04C30.628 11.224 31.148 11.316 31.684 11.316C32.436 11.316 33 11.18 33.376 10.908C33.752 10.628 33.94 10.268 33.94 9.828C33.94 9.492 33.836 9.224 33.628 9.024C33.428 8.824 33.18 8.672 32.884 8.568C32.588 8.456 32.176 8.336 31.648 8.208C31.016 8.048 30.512 7.896 30.136 7.752C29.76 7.6 29.436 7.372 29.164 7.068C28.9 6.764 28.768 6.352 28.768 5.832C28.768 5.408 28.88 5.024 29.104 4.68C29.328 4.328 29.672 4.048 30.136 3.84C30.6 3.632 31.176 3.528 31.864 3.528C32.344 3.528 32.812 3.596 33.268 3.732C33.732 3.86 34.132 4.04 34.468 4.272L34.168 4.98C33.816 4.748 33.44 4.576 33.04 4.464C32.64 4.344 32.248 4.284 31.864 4.284C31.128 4.284 30.572 4.428 30.196 4.716C29.828 4.996 29.644 5.36 29.644 5.808C29.644 6.144 29.744 6.416 29.944 6.624C30.152 6.824 30.408 6.98 30.712 7.092C31.024 7.196 31.44 7.312 31.96 7.44C32.576 7.592 33.072 7.744 33.448 7.896C33.832 8.04 34.156 8.264 34.42 8.568C34.684 8.864 34.816 9.268 34.816 9.78C34.816 10.204 34.7 10.592 34.468 10.944C34.244 11.288 33.896 11.564 33.424 11.772C32.952 11.972 32.372 12.072 31.684 12.072ZM40.3988 12.072C39.5668 12.072 38.8148 11.888 38.1428 11.52C37.4788 11.152 36.9548 10.644 36.5708 9.996C36.1948 9.34 36.0068 8.608 36.0068 7.8C36.0068 6.992 36.1948 6.264 36.5708 5.616C36.9548 4.96 37.4828 4.448 38.1548 4.08C38.8268 3.712 39.5788 3.528 40.4108 3.528C41.0348 3.528 41.6108 3.632 42.1388 3.84C42.6668 4.048 43.1148 4.352 43.4828 4.752L42.9188 5.316C42.2628 4.652 41.4348 4.32 40.4348 4.32C39.7708 4.32 39.1668 4.472 38.6228 4.776C38.0788 5.08 37.6508 5.496 37.3388 6.024C37.0348 6.552 36.8828 7.144 36.8828 7.8C36.8828 8.456 37.0348 9.048 37.3388 9.576C37.6508 10.104 38.0788 10.52 38.6228 10.824C39.1668 11.128 39.7708 11.28 40.4348 11.28C41.4428 11.28 42.2708 10.944 42.9188 10.272L43.4828 10.836C43.1148 11.236 42.6628 11.544 42.1268 11.76C41.5988 11.968 41.0228 12.072 40.3988 12.072ZM51.1118 12L49.1918 9.3C48.9758 9.324 48.7518 9.336 48.5198 9.336H46.2638V12H45.3758V3.6H48.5198C49.5918 3.6 50.4318 3.856 51.0398 4.368C51.6478 4.88 51.9518 5.584 51.9518 6.48C51.9518 7.136 51.7838 7.692 51.4478 8.148C51.1198 8.596 50.6478 8.92 50.0318 9.12L52.0838 12H51.1118ZM48.4958 8.58C49.3278 8.58 49.9638 8.396 50.4038 8.028C50.8438 7.66 51.0638 7.144 51.0638 6.48C51.0638 5.8 50.8438 5.28 50.4038 4.92C49.9638 4.552 49.3278 4.368 48.4958 4.368H46.2638V8.58H48.4958ZM57.7197 12.072C56.8877 12.072 56.1317 11.888 55.4517 11.52C54.7797 11.144 54.2517 10.632 53.8677 9.984C53.4917 9.336 53.3037 8.608 53.3037 7.8C53.3037 6.992 53.4917 6.264 53.8677 5.616C54.2517 4.968 54.7797 4.46 55.4517 4.092C56.1317 3.716 56.8877 3.528 57.7197 3.528C58.5517 3.528 59.2997 3.712 59.9637 4.08C60.6357 4.448 61.1637 4.96 61.5477 5.616C61.9317 6.264 62.1237 6.992 62.1237 7.8C62.1237 8.608 61.9317 9.34 61.5477 9.996C61.1637 10.644 60.6357 11.152 59.9637 11.52C59.2997 11.888 58.5517 12.072 57.7197 12.072ZM57.7197 11.28C58.3837 11.28 58.9837 11.132 59.5197 10.836C60.0557 10.532 60.4757 10.116 60.7797 9.588C61.0837 9.052 61.2357 8.456 61.2357 7.8C61.2357 7.144 61.0837 6.552 60.7797 6.024C60.4757 5.488 60.0557 5.072 59.5197 4.776C58.9837 4.472 58.3837 4.32 57.7197 4.32C57.0557 4.32 56.4517 4.472 55.9077 4.776C55.3717 5.072 54.9477 5.488 54.6357 6.024C54.3317 6.552 54.1797 7.144 54.1797 7.8C54.1797 8.456 54.3317 9.052 54.6357 9.588C54.9477 10.116 55.3717 10.532 55.9077 10.836C56.4517 11.132 57.0557 11.28 57.7197 11.28ZM64.1141 3.6H65.0021V11.232H69.7061V12H64.1141V3.6ZM71.1805 3.6H72.0685V11.232H76.7725V12H71.1805V3.6ZM81.3875 3.6H84.8075C85.6955 3.6 86.4795 3.78 87.1595 4.14C87.8395 4.492 88.3675 4.988 88.7435 5.628C89.1195 6.26 89.3075 6.984 89.3075 7.8C89.3075 8.616 89.1195 9.344 88.7435 9.984C88.3675 10.616 87.8395 11.112 87.1595 11.472C86.4795 11.824 85.6955 12 84.8075 12H81.3875V3.6ZM84.7595 11.232C85.4955 11.232 86.1395 11.088 86.6915 10.8C87.2435 10.504 87.6715 10.1 87.9755 9.588C88.2795 9.068 88.4315 8.472 88.4315 7.8C88.4315 7.128 88.2795 6.536 87.9755 6.024C87.6715 5.504 87.2435 5.1 86.6915 4.812C86.1395 4.516 85.4955 4.368 84.7595 4.368H82.2755V11.232H84.7595ZM94.9736 12.072C94.1416 12.072 93.3856 11.888 92.7056 11.52C92.0336 11.144 91.5056 10.632 91.1216 9.984C90.7456 9.336 90.5576 8.608 90.5576 7.8C90.5576 6.992 90.7456 6.264 91.1216 5.616C91.5056 4.968 92.0336 4.46 92.7056 4.092C93.3856 3.716 94.1416 3.528 94.9736 3.528C95.8056 3.528 96.5536 3.712 97.2176 4.08C97.8896 4.448 98.4176 4.96 98.8016 5.616C99.1856 6.264 99.3776 6.992 99.3776 7.8C99.3776 8.608 99.1856 9.34 98.8016 9.996C98.4176 10.644 97.8896 11.152 97.2176 11.52C96.5536 11.888 95.8056 12.072 94.9736 12.072ZM94.9736 11.28C95.6376 11.28 96.2376 11.132 96.7736 10.836C97.3096 10.532 97.7296 10.116 98.0336 9.588C98.3376 9.052 98.4896 8.456 98.4896 7.8C98.4896 7.144 98.3376 6.552 98.0336 6.024C97.7296 5.488 97.3096 5.072 96.7736 4.776C96.2376 4.472 95.6376 4.32 94.9736 4.32C94.3096 4.32 93.7056 4.472 93.1616 4.776C92.6256 5.072 92.2016 5.488 91.8896 6.024C91.5856 6.552 91.4336 7.144 91.4336 7.8C91.4336 8.456 91.5856 9.052 91.8896 9.588C92.2016 10.116 92.6256 10.532 93.1616 10.836C93.7056 11.132 94.3096 11.28 94.9736 11.28ZM112.642 3.6L109.81 12H108.874L106.414 4.836L103.942 12H103.018L100.186 3.6H101.098L103.522 10.824L106.03 3.6H106.858L109.33 10.86L111.79 3.6H112.642ZM121.29 3.6V12H120.558L115.158 5.184V12H114.27V3.6H115.002L120.414 10.416V3.6H121.29Z" fill="black"/>
<line x1="0.240722" y1="11.5618" x2="71.2407" y2="50.5618" stroke="black"/>
<line x1="146.231" y1="12.4436" x2="71.2307" y2="51.4436" stroke="black"/>
</svg>
